<svg width="18" height="14" viewBox="0 0 18 14" fill="none" xmlns="http://www.w3.org/2000/svg">
<path d="M13.0875 0H1.63108C0.718453 0 0 0.789323 0 1.74482V8.76564C0 9.74191 0.73787 10.5105 1.63108 10.5105H13.0875C14.0001 10.5105 14.7186 9.72114 14.7186 8.76564V1.76559C14.7186 0.789323 14.0001 0 13.0875 0ZM5.80587 6.54307C5.74762 6.70924 5.65053 6.87542 5.53403 7.00005C5.41752 7.12468 5.26218 7.22854 5.08742 7.31162C4.91266 7.39471 4.71849 7.41548 4.48548 7.41548C4.34955 7.41548 4.23305 7.39471 4.09712 7.37394C3.9612 7.35317 3.84469 7.31162 3.72819 7.24931C3.61168 7.20776 3.49518 7.14545 3.39809 7.06236C3.301 7.00005 3.20391 6.91696 3.12624 6.83387L3.33983 6.43921C3.35925 6.41844 3.37867 6.3769 3.4175 6.3769C3.43692 6.35613 3.47576 6.35613 3.51459 6.35613C3.55343 6.35613 3.61168 6.3769 3.66993 6.41844C3.72819 6.45999 3.78644 6.50153 3.86411 6.56384C3.94178 6.60539 4.01945 6.6677 4.13596 6.70924C4.23305 6.75079 4.34955 6.77156 4.50489 6.77156C4.71849 6.77156 4.89325 6.70924 5.00975 6.60539C5.12626 6.50153 5.18451 6.33535 5.18451 6.12764C5.18451 6.00301 5.16509 5.91992 5.10684 5.83684C5.04859 5.77452 4.99033 5.71221 4.89325 5.64989C4.79616 5.60835 4.69907 5.5668 4.58256 5.52526C4.46606 5.48372 4.34955 5.46295 4.23305 5.4214C4.11654 5.37986 4.00003 5.33832 3.88353 5.276C3.76702 5.21369 3.66993 5.15137 3.57285 5.04751C3.47576 4.96443 3.41751 4.8398 3.35925 4.71517C3.301 4.56976 3.28158 4.40359 3.28158 4.21665C3.28158 4.05047 3.301 3.90507 3.37867 3.7389C3.43692 3.5935 3.53401 3.4481 3.6311 3.34424C3.7476 3.21961 3.88353 3.13652 4.05829 3.05343C4.23305 2.99112 4.4078 2.94958 4.6214 2.94958C4.85441 2.94958 5.08742 2.99112 5.2816 3.07421C5.47577 3.15729 5.65053 3.26115 5.80587 3.40655L5.6117 3.80121C5.59228 3.84276 5.57286 3.8843 5.53403 3.90507C5.51461 3.92584 5.47578 3.92584 5.43694 3.92584C5.3981 3.92584 5.35927 3.90507 5.30102 3.8843C5.26218 3.84276 5.20393 3.82198 5.12626 3.78044C5.068 3.7389 4.99033 3.69735 4.89325 3.67658C4.81557 3.63504 4.69907 3.63504 4.58256 3.63504C4.48548 3.63504 4.38839 3.65581 4.31072 3.67658C4.23305 3.69735 4.17479 3.7389 4.11654 3.78044C4.05829 3.82198 4.01945 3.8843 4.00003 3.94661C4.01945 3.98816 4.00003 4.07124 4.00003 4.15433C4.00003 4.25819 4.01945 4.34128 4.0777 4.40359C4.13596 4.46591 4.19421 4.52822 4.2913 4.56976C4.38839 4.61131 4.48547 4.65285 4.60198 4.69439C4.71849 4.73594 4.83499 4.77748 4.9515 4.81902C5.068 4.86057 5.18451 4.92288 5.30102 4.96443C5.41752 5.02674 5.51461 5.08906 5.6117 5.19291C5.70879 5.276 5.76704 5.37986 5.82529 5.52526C5.88355 5.64989 5.90296 5.81606 5.90296 5.98224C5.90296 6.18995 5.86413 6.3769 5.80587 6.54307ZM6.69909 7.37394C6.67967 7.41548 6.66025 7.45702 6.64083 7.49857C6.62141 7.54011 6.58258 7.56088 6.54374 7.58165C6.50491 7.60243 6.46607 7.6232 6.42724 7.64397C6.3884 7.66474 6.34957 7.66474 6.31073 7.66474H6.01947L7.66997 3.13652C7.7088 3.05343 7.74764 2.99112 7.80589 2.94958C7.86414 2.90803 7.94182 2.88726 8.01949 2.88726H8.31075L6.69909 7.37394Z" fill="white"/>
<path d="M16.3689 3.51032V10.5104C16.3689 11.4866 15.631 12.2552 14.7378 12.2552H3.28142C3.28142 13.2315 4.01929 14 4.9125 14H16.3689C17.2815 14 18 13.2107 18 12.2552V5.25514C18 4.29964 17.2621 3.51032 16.3689 3.51032Z" fill="white"/>
</svg>
