<svg width="6" height="9" viewBox="0 0 6 9" fill="none" xmlns="http://www.w3.org/2000/svg">
<path d="M5.454 8.0415C5.373 8.0415 5.265 7.9965 5.13 7.9065L0.8775 4.977C0.7425 4.878 0.6435 4.7835 0.5805 4.6935C0.5175 4.6035 0.486 4.4955 0.486 4.3695V4.14C0.486 4.014 0.513 3.906 0.567 3.816C0.63 3.726 0.7335 3.627 0.8775 3.519L5.13 0.602999C5.265 0.513 5.373 0.468 5.454 0.468C5.535 0.468 5.598 0.495 5.643 0.548999C5.697 0.593999 5.724 0.656999 5.724 0.737999V1.332C5.724 1.431 5.697 1.512 5.643 1.575C5.598 1.638 5.5215 1.7055 5.4135 1.7775L1.7955 4.248L5.4135 6.7185C5.5305 6.7995 5.6115 6.8715 5.6565 6.9345C5.7015 6.9975 5.724 7.0785 5.724 7.1775V7.7715C5.724 7.8525 5.697 7.92 5.643 7.974C5.598 8.019 5.535 8.0415 5.454 8.0415Z" fill="#2f80ed"/>
</svg>
